<mxfile host="app.diagrams.net" modified="2023-04-25T15:19:12.900Z" agent="Mozilla/5.0 (Windows NT 10.0; Win64; x64) AppleWebKit/537.36 (KHTML, like Gecko) Chrome/112.0.0.0 Safari/537.36" version="21.1.4" etag="42pI0ky7H0WQRpqhOdMi" type="github">
  <diagram name="Page-1" id="73SI6zIwyv-atHLCpnE8">
    <mxGraphModel>
      <root>
        <mxCell id="0" />
        <mxCell id="1" parent="0" />
      </root>
    </mxGraphModel>
  </diagram>
</mxfile>
